<?xml version="1.0" standalone="no"?>
<!DOCTYPE svg PUBLIC "-//W3C//DTD SVG 20010904//EN"
 "http://www.w3.org/TR/2001/REC-SVG-20010904/DTD/svg10.dtd">
<svg version="1.0" xmlns="http://www.w3.org/2000/svg"
 width="1200.000000pt" height="1200.000000pt" viewBox="0 0 1200.000000 1200.000000"
 preserveAspectRatio="xMidYMid meet">
<metadata>
Created by potrace 1.14, written by Peter Selinger 2001-2017
</metadata>
<g transform="translate(0.000000,1200.000000) scale(0.100000,-0.100000)"
fill="#000000" stroke="none">
<path d="M1358 11069 c-119 -28 -215 -83 -302 -172 -59 -61 -103 -129 -117
-182 -6 -22 -14 -49 -17 -60 -4 -11 -7 -1984 -9 -4385 -1 -2401 -3 -4484 -4
-4630 0 -146 2 -281 5 -300 4 -19 9 -48 12 -65 11 -66 47 -153 82 -197 32 -41
102 -108 112 -108 6 0 10 -3 10 -7 0 -8 72 -44 150 -77 69 -29 117 -38 220
-42 80 -3 9026 -7 9050 -4 3 0 37 2 75 4 39 2 82 8 98 14 15 7 27 10 27 8 0
-10 149 69 202 106 104 73 197 238 204 363 5 87 4 9188 0 9260 -5 64 -32 147
-72 220 -66 117 -199 206 -396 263 -13 3 -2100 7 -4638 8 -4441 1 -4618 0
-4692 -17z m584 -389 c123 1 230 1 238 1 8 0 116 0 240 0 124 0 232 0 240 0 8
0 116 0 240 0 124 0 232 0 240 0 8 0 116 0 240 0 124 0 232 0 240 0 8 0 404 1
880 1 476 0 872 0 880 0 8 0 116 -1 240 -1 124 0 232 0 240 0 8 0 116 0 240 0
124 0 232 0 240 0 8 1 80 1 160 0 80 0 152 0 160 0 8 0 116 0 240 0 124 0 232
0 240 0 8 1 107 0 220 0 393 -3 1856 -2 2025 0 6 0 111 0 235 0 124 0 232 0
240 0 32 1 479 0 549 -1 147 -2 213 -10 245 -28 38 -22 73 -72 87 -126 16 -59
15 -9050 -1 -9121 -20 -91 -66 -133 -162 -151 -18 -3 -2061 -6 -4541 -6 -3508
0 -4519 3 -4560 12 -60 14 -111 49 -132 91 -9 16 -13 29 -10 29 4 0 3 5 -1 12
-15 24 -25 288 -11 288 5 0 6 4 3 8 -3 5 -5 37 -6 73 -1 59 -2 504 -1 539 0 8
0 116 0 240 0 124 0 232 0 240 0 8 0 80 0 160 -1 80 -1 152 0 160 0 8 0 116 0
240 0 124 0 232 0 240 0 8 0 116 0 240 0 124 -1 232 -1 240 0 8 0 404 0 880 0
476 1 872 1 880 0 8 0 116 0 240 0 124 0 232 0 240 0 8 0 116 0 240 0 124 0
232 0 240 0 8 0 116 0 240 0 124 0 232 0 240 0 8 0 116 0 240 0 124 0 230 0
235 2 169 3 1632 0 2025 0 113 -1 210 -1 215 1 32 2 103 1 118 0 9 0 41 0 70
0 28 -1 120 -1 203 -2 134 0 155 19 195 18 38 83 111 83 93 0 -4 7 0 17 7 11
10 52 15 136 17 67 1 123 4 125 7 3 2 8 2 13 0 4 -3 108 -5 231 -5z"/>
<path d="M3795 8682 c-1 -2 -74 -4 -161 -5 l-157 -2 -4 -30 c-2 -16 -10 -68
-18 -115 -8 -47 -17 -102 -21 -124 -3 -21 -8 -48 -10 -60 -2 -11 -6 -34 -9
-51 -3 -16 -8 -42 -11 -57 -3 -14 0 -29 6 -33 11 -7 1739 -9 1746 -2 4 3 10
35 29 142 12 69 46 282 50 308 l4 27 -127 1 c-70 1 -130 1 -134 0 -16 -2 -71
-3 -208 -2 -80 0 -152 0 -160 0 -8 0 -89 0 -180 0 -91 1 -221 1 -290 1 -69 1
-174 2 -233 3 -60 1 -110 1 -112 -1z"/>
<path d="M5604 8682 c-28 -3 -32 -8 -38 -40 -9 -53 -14 -85 -32 -182 -9 -47
-18 -96 -20 -110 -3 -14 -9 -47 -14 -75 -5 -27 -12 -63 -15 -80 -3 -16 -7 -39
-9 -50 -21 -122 -27 -154 -31 -175 -3 -14 -8 -38 -10 -55 -3 -16 -7 -41 -10
-55 -10 -52 -28 -146 -30 -165 -2 -11 -10 -56 -19 -100 -8 -44 -18 -93 -20
-110 -12 -71 -17 -101 -21 -115 -2 -8 -6 -31 -9 -50 -7 -41 -12 -67 -32 -170
-9 -41 -16 -82 -16 -90 0 -8 -4 -31 -9 -50 -4 -19 -11 -53 -14 -75 -4 -22 -8
-51 -11 -65 -3 -14 -6 -34 -8 -45 -2 -11 -9 -51 -16 -90 -23 -124 -53 -110
248 -111 145 0 265 3 268 8 3 4 7 16 9 25 2 10 17 88 34 172 18 85 34 171 37
190 3 20 8 40 11 44 2 4 6 20 8 35 3 15 7 38 10 52 3 14 10 48 16 75 10 47 13
65 23 118 3 12 12 58 21 102 9 44 18 89 20 100 7 37 16 80 27 125 5 25 12 56
14 70 3 14 17 84 32 155 l27 130 491 1 490 1 -17 -86 c-10 -47 -21 -99 -24
-116 -2 -16 -7 -41 -10 -55 -6 -30 -73 -375 -86 -440 -4 -25 -10 -56 -13 -70
-9 -39 -45 -231 -51 -270 -4 -19 -11 -55 -16 -80 -6 -25 -12 -52 -14 -60 -7
-37 -19 -106 -20 -115 -1 -5 -7 -35 -13 -65 -6 -30 -14 -68 -17 -85 -2 -16
-14 -75 -25 -130 -11 -55 -23 -112 -25 -127 -10 -56 -16 -88 -75 -388 -33
-168 -62 -316 -65 -330 -7 -48 -15 -91 -30 -160 -8 -38 -17 -82 -20 -97 -3
-16 -7 -39 -10 -53 -3 -14 -7 -38 -10 -55 -3 -16 -8 -43 -12 -60 -3 -16 -7
-37 -8 -45 -1 -8 -4 -24 -8 -35 -3 -11 -8 -37 -11 -57 -3 -21 -11 -59 -17 -85
-6 -27 -13 -64 -15 -83 -3 -19 -7 -43 -10 -52 -5 -18 -10 -38 -18 -89 -3 -19
-8 -45 -11 -59 -15 -76 -25 -128 -29 -152 -3 -15 -12 -63 -20 -105 -9 -43 -17
-89 -20 -103 -2 -14 -7 -36 -10 -50 -3 -14 -8 -36 -10 -50 -2 -14 -7 -36 -10
-50 -3 -14 -8 -36 -10 -50 -3 -14 -9 -50 -15 -80 -6 -30 -12 -66 -15 -80 -2
-14 -7 -36 -11 -50 l-6 -25 -267 0 c-147 1 -273 -1 -279 -3 -7 -2 -15 -20 -19
-40 -7 -42 -10 -56 -25 -127 -6 -27 -12 -63 -15 -80 -2 -16 -6 -41 -9 -55 -3
-14 -10 -45 -15 -70 -4 -25 -11 -56 -14 -70 -3 -14 -8 -43 -11 -66 -3 -22 -9
-53 -13 -70 -17 -63 -38 -59 318 -58 1058 4 1562 10 1567 17 3 4 6 18 8 30 4
32 20 127 30 177 28 154 51 287 60 356 l7 51 -304 0 -303 0 1 34 c1 34 7 69
24 145 5 23 12 56 15 75 2 19 9 57 15 84 6 28 12 59 14 70 2 11 12 58 21 105
9 47 18 96 20 110 4 26 54 287 81 420 8 41 17 89 19 105 3 17 7 41 10 55 3 14
7 36 10 50 3 14 7 36 10 50 3 14 7 36 10 50 3 14 9 48 15 75 5 28 12 68 16 90
3 22 9 56 14 75 5 19 12 53 15 75 3 22 10 60 16 85 15 68 28 140 34 180 2 14
8 45 13 70 10 42 20 96 27 145 2 11 4 20 5 20 2 0 6 19 14 65 3 19 12 71 21
114 8 44 18 93 21 110 2 17 7 38 9 46 2 8 7 31 10 50 3 19 8 46 10 60 3 14 7
36 10 50 3 14 9 48 15 75 5 28 12 66 15 85 3 19 8 42 10 50 2 8 7 31 10 50 3
19 14 78 25 130 11 52 22 111 25 130 4 29 9 52 20 100 1 3 7 39 14 80 7 41 17
91 21 110 10 39 19 83 25 120 2 14 7 41 11 60 3 19 7 42 9 50 1 8 5 29 8 45 4
17 8 41 11 55 2 14 16 85 30 159 30 150 34 173 35 182 1 9 991 7 996 -2 3 -4
-4 -51 -15 -106 -11 -54 -23 -111 -25 -128 -4 -25 -10 -53 -20 -95 -2 -9 -18
-94 -21 -110 -1 -8 -5 -28 -8 -45 -12 -57 -27 -132 -31 -156 -3 -13 -7 -35
-10 -49 -3 -14 -12 -63 -21 -110 -28 -146 -32 -165 -34 -165 -1 0 -3 -11 -5
-25 -2 -14 -13 -72 -25 -130 -11 -58 -23 -121 -26 -140 -3 -19 -10 -52 -15
-74 -6 -21 -8 -41 -4 -44 11 -11 555 -8 556 3 0 6 2 17 4 25 1 8 5 29 8 45 15
91 29 165 37 205 5 25 12 59 15 75 6 36 10 59 26 145 6 36 13 74 15 85 1 11 5
30 8 41 2 12 7 37 10 55 8 50 15 88 26 144 5 28 12 64 15 80 3 17 7 39 9 50
12 59 39 205 43 235 10 69 11 75 13 75 1 0 3 11 6 25 2 14 11 63 20 110 9 47
18 99 20 115 3 17 9 50 14 75 5 25 12 61 15 80 3 19 8 46 10 60 12 59 15 77
20 105 3 17 10 53 15 80 21 105 22 125 8 126 -52 2 -3720 3 -3744 1z"/>
<path d="M3187 7022 c-9 -2 -17 -13 -18 -25 0 -12 -2 -29 -4 -37 -9 -46 -27
-139 -31 -165 -3 -16 -12 -66 -20 -110 -9 -44 -18 -94 -20 -110 l-5 -31 870 0
870 0 6 26 c8 37 12 59 21 120 4 30 8 57 9 60 3 15 20 122 29 188 3 18 7 45
11 60 l5 27 -853 0 c-469 0 -861 -1 -870 -3z"/>
<path d="M2869 5357 c-1 -16 -7 -51 -19 -113 -6 -28 -13 -64 -16 -80 -2 -16
-9 -51 -14 -79 -6 -27 -12 -63 -15 -80 -6 -44 -15 -88 -20 -102 -3 -8 6 -13
23 -13 37 -1 3015 -1 3128 0 l92 0 7 56 c4 31 8 66 10 78 14 82 45 277 49 308
l6 36 -1615 0 c-1219 0 -1615 -3 -1616 -11z"/>
<path d="M2559 3720 c0 -3 -2 -14 -4 -25 -3 -11 -7 -38 -9 -61 -3 -23 -10 -61
-15 -85 -5 -24 -12 -64 -15 -89 -3 -25 -13 -81 -21 -124 -10 -50 -12 -82 -6
-86 6 -3 607 -5 1336 -5 1169 0 1327 2 1334 15 5 8 11 35 14 60 4 25 9 59 12
75 21 123 22 131 29 175 3 19 10 59 16 89 5 30 7 57 4 60 -7 7 -2674 8 -2675
1z"/>
</g>
</svg>
